<?plantuml 1.2026.2?><svg xmlns="http://www.w3.org/2000/svg" xmlns:xlink="http://www.w3.org/1999/xlink" contentStyleType="text/css" data-diagram-type="SEQUENCE" height="776px" preserveAspectRatio="none" style="width:972px;height:776px;background:#FFFFFF;" version="1.1" viewBox="0 0 972 776" width="972px" zoomAndPan="magnify"><title>Keyfile Tier &#226;&#128;&#148; Operator Login (current shipping tier, contrast)
Source: memo-20260527-operator-credential-models.md</title><defs/><g><text fill="#000000" font-family="sans-serif" font-size="14" font-weight="bold" lengthAdjust="spacing" textLength="503.0703" x="230.6897" y="27.9951">Keyfile Tier &#226;&#128;&#148; Operator Login (current shipping tier, contrast)</text><text fill="#000000" font-family="sans-serif" font-size="14" font-weight="bold" lengthAdjust="spacing" textLength="449.7021" x="257.3738" y="44.292">Source: memo-20260527-operator-credential-models.md</text><g class="participant-lifeline" data-entity-uid="part1" data-qualified-name="OP" id="part1-lifeline"><g><title>Operator</title><rect fill="#000000" fill-opacity="0.00000" height="528.5234" width="8" x="45.3325" y="151.1875"/><line style="stroke:#181818;stroke-width:0.5;stroke-dasharray:5,5;" x1="49" x2="49" y1="151.1875" y2="679.7109"/></g></g><g class="participant-lifeline" data-entity-uid="part2" data-qualified-name="TOOL" id="part2-lifeline"><g><title>RBK Tool</title><rect fill="#000000" fill-opacity="0.00000" height="528.5234" width="8" x="285.5654" y="151.1875"/><line style="stroke:#181818;stroke-width:0.5;stroke-dasharray:5,5;" x1="289.0742" x2="289.0742" y1="151.1875" y2="679.7109"/></g></g><g class="participant-lifeline" data-entity-uid="part3" data-qualified-name="RBRA" id="part3-lifeline"><g><title>RBRA key file</title><rect fill="#000000" fill-opacity="0.00000" height="528.5234" width="8" x="615.6914" y="151.1875"/><line style="stroke:#181818;stroke-width:0.5;stroke-dasharray:5,5;" x1="619.0112" x2="619.0112" y1="151.1875" y2="679.7109"/></g></g><g class="participant-lifeline" data-entity-uid="part4" data-qualified-name="GOOG" id="part4-lifeline"><g><title>Google OAuth</title><rect fill="#000000" fill-opacity="0.00000" height="528.5234" width="8" x="774.4438" y="151.1875"/><line style="stroke:#181818;stroke-width:0.5;stroke-dasharray:5,5;" x1="778.3716" x2="778.3716" y1="151.1875" y2="679.7109"/></g></g><g class="participant-lifeline" data-entity-uid="part5" data-qualified-name="GCP" id="part5-lifeline"><g><title>Depot API</title><rect fill="#000000" fill-opacity="0.00000" height="528.5234" width="8" x="914.9829" y="151.1875"/><line style="stroke:#181818;stroke-width:0.5;stroke-dasharray:5,5;" x1="918.5161" x2="918.5161" y1="151.1875" y2="679.7109"/></g></g><g class="participant participant-head" data-entity-uid="part1" data-qualified-name="OP" id="part1-head"><text fill="#000000" font-family="sans-serif" font-size="14" lengthAdjust="spacing" textLength="62.665" x="15" y="131.5889">Operator</text><text fill="#000000" font-family="sans-serif" font-size="14" lengthAdjust="spacing" textLength="59.7598" x="16.4526" y="147.8857">(human)</text><ellipse cx="49.3325" cy="67.0938" fill="#E2E2F0" rx="8" ry="8" style="stroke:#181818;stroke-width:0.5;"/><path d="M49.3325,75.0938 L49.3325,102.0938 M36.3325,83.0938 L62.3325,83.0938 M49.3325,102.0938 L36.3325,117.0938 M49.3325,102.0938 L62.3325,117.0938" fill="none" style="stroke:#181818;stroke-width:0.5;"/></g><g class="participant participant-tail" data-entity-uid="part1" data-qualified-name="OP" id="part1-tail"><text fill="#000000" font-family="sans-serif" font-size="14" lengthAdjust="spacing" textLength="62.665" x="15" y="691.7061">Operator</text><text fill="#000000" font-family="sans-serif" font-size="14" lengthAdjust="spacing" textLength="59.7598" x="16.4526" y="708.0029">(human)</text><ellipse cx="49.3325" cy="719.8047" fill="#E2E2F0" rx="8" ry="8" style="stroke:#181818;stroke-width:0.5;"/><path d="M49.3325,727.8047 L49.3325,754.8047 M36.3325,735.8047 L62.3325,735.8047 M49.3325,754.8047 L36.3325,769.8047 M49.3325,754.8047 L62.3325,769.8047" fill="none" style="stroke:#181818;stroke-width:0.5;"/></g><g class="participant participant-head" data-entity-uid="part2" data-qualified-name="TOOL" id="part2-head"><rect fill="#E2E2F0" height="46.5938" rx="2.5" ry="2.5" style="stroke:#181818;stroke-width:0.5;" width="106.9824" x="236.0742" y="103.5938"/><text fill="#000000" font-family="sans-serif" font-size="14" lengthAdjust="spacing" textLength="62.5352" x="258.2979" y="123.5889">RBK Tool</text><text fill="#000000" font-family="sans-serif" font-size="14" lengthAdjust="spacing" textLength="92.9824" x="243.0742" y="139.8857">(workstation)</text></g><g class="participant participant-tail" data-entity-uid="part2" data-qualified-name="TOOL" id="part2-tail"><rect fill="#E2E2F0" height="46.5938" rx="2.5" ry="2.5" style="stroke:#181818;stroke-width:0.5;" width="106.9824" x="236.0742" y="678.7109"/><text fill="#000000" font-family="sans-serif" font-size="14" lengthAdjust="spacing" textLength="62.5352" x="258.2979" y="698.7061">RBK Tool</text><text fill="#000000" font-family="sans-serif" font-size="14" lengthAdjust="spacing" textLength="92.9824" x="243.0742" y="715.0029">(workstation)</text></g><g class="participant participant-head" data-entity-uid="part3" data-qualified-name="RBRA" id="part3-head"><text fill="#000000" font-family="sans-serif" font-size="14" lengthAdjust="spacing" textLength="93.8643" x="569.7593" y="131.5889">RBRA key file</text><text fill="#000000" font-family="sans-serif" font-size="14" lengthAdjust="spacing" textLength="113.3604" x="560.0112" y="147.8857">(SA key on disk)</text><path d="M601.6914,82.5938 C601.6914,72.5938 619.6914,72.5938 619.6914,72.5938 C619.6914,72.5938 637.6914,72.5938 637.6914,82.5938 L637.6914,108.5938 C637.6914,118.5938 619.6914,118.5938 619.6914,118.5938 C619.6914,118.5938 601.6914,118.5938 601.6914,108.5938 L601.6914,82.5938" fill="#E2E2F0" style="stroke:#181818;stroke-width:0.5;"/><path d="M601.6914,82.5938 C601.6914,92.5938 619.6914,92.5938 619.6914,92.5938 C619.6914,92.5938 637.6914,92.5938 637.6914,82.5938" fill="none" style="stroke:#181818;stroke-width:0.5;"/></g><g class="participant participant-tail" data-entity-uid="part3" data-qualified-name="RBRA" id="part3-tail"><text fill="#000000" font-family="sans-serif" font-size="14" lengthAdjust="spacing" textLength="93.8643" x="569.7593" y="691.7061">RBRA key file</text><text fill="#000000" font-family="sans-serif" font-size="14" lengthAdjust="spacing" textLength="113.3604" x="560.0112" y="708.0029">(SA key on disk)</text><path d="M601.6914,721.3047 C601.6914,711.3047 619.6914,711.3047 619.6914,711.3047 C619.6914,711.3047 637.6914,711.3047 637.6914,721.3047 L637.6914,747.3047 C637.6914,757.3047 619.6914,757.3047 619.6914,757.3047 C619.6914,757.3047 601.6914,757.3047 601.6914,747.3047 L601.6914,721.3047" fill="#E2E2F0" style="stroke:#181818;stroke-width:0.5;"/><path d="M601.6914,721.3047 C601.6914,731.3047 619.6914,731.3047 619.6914,731.3047 C619.6914,731.3047 637.6914,731.3047 637.6914,721.3047" fill="none" style="stroke:#181818;stroke-width:0.5;"/></g><g class="participant participant-head" data-entity-uid="part4" data-qualified-name="GOOG" id="part4-head"><rect fill="#E2E2F0" height="46.5938" rx="2.5" ry="2.5" style="stroke:#181818;stroke-width:0.5;" width="178.1445" x="689.3716" y="103.5938"/><text fill="#000000" font-family="sans-serif" font-size="14" lengthAdjust="spacing" textLength="97.6514" x="729.6182" y="123.5889">Google OAuth</text><text fill="#000000" font-family="sans-serif" font-size="14" lengthAdjust="spacing" textLength="164.1445" x="696.3716" y="139.8857">oauth2.googleapis.com</text></g><g class="participant participant-tail" data-entity-uid="part4" data-qualified-name="GOOG" id="part4-tail"><rect fill="#E2E2F0" height="46.5938" rx="2.5" ry="2.5" style="stroke:#181818;stroke-width:0.5;" width="178.1445" x="689.3716" y="678.7109"/><text fill="#000000" font-family="sans-serif" font-size="14" lengthAdjust="spacing" textLength="97.6514" x="729.6182" y="698.7061">Google OAuth</text><text fill="#000000" font-family="sans-serif" font-size="14" lengthAdjust="spacing" textLength="164.1445" x="696.3716" y="715.0029">oauth2.googleapis.com</text></g><g class="participant participant-head" data-entity-uid="part5" data-qualified-name="GCP" id="part5-head"><rect fill="#E2E2F0" height="46.5938" rx="2.5" ry="2.5" style="stroke:#181818;stroke-width:0.5;" width="82.9336" x="877.5161" y="103.5938"/><text fill="#000000" font-family="sans-serif" font-size="14" lengthAdjust="spacing" textLength="68.9336" x="884.5161" y="123.5889">Depot API</text><text fill="#000000" font-family="sans-serif" font-size="14" lengthAdjust="spacing" textLength="39.9902" x="898.9878" y="139.8857">(GCP)</text></g><g class="participant participant-tail" data-entity-uid="part5" data-qualified-name="GCP" id="part5-tail"><rect fill="#E2E2F0" height="46.5938" rx="2.5" ry="2.5" style="stroke:#181818;stroke-width:0.5;" width="82.9336" x="877.5161" y="678.7109"/><text fill="#000000" font-family="sans-serif" font-size="14" lengthAdjust="spacing" textLength="68.9336" x="884.5161" y="698.7061">Depot API</text><text fill="#000000" font-family="sans-serif" font-size="14" lengthAdjust="spacing" textLength="39.9902" x="898.9878" y="715.0029">(GCP)</text></g><path d="M5,166.1875 L5,206.1875 L664,206.1875 L664,176.1875 L654,166.1875 L5,166.1875" fill="#FEFFDD" style="stroke:#181818;stroke-width:0.5;"/><path d="M654,166.1875 L654,176.1875 L664,176.1875 L654,166.1875" fill="#FEFFDD" style="stroke:#181818;stroke-width:0.5;"/><text fill="#000000" font-family="sans-serif" font-size="13" lengthAdjust="spacing" textLength="197.2979" x="194.4634" y="183.2544">No GCP organization required.</text><text fill="#000000" font-family="sans-serif" font-size="13" font-weight="bold" lengthAdjust="spacing" textLength="271.4448" x="194.4634" y="198.3872">Possession of the key is the identity.</text><g class="message" data-entity-1="part1" data-entity-2="part2" id="msg1"><polygon fill="#181818" points="277.5654,228.5859,287.5654,232.5859,277.5654,236.5859,281.5654,232.5859" style="stroke:#181818;stroke-width:1;"/><line style="stroke:#181818;stroke-width:1;" x1="49.3325" x2="283.5654" y1="232.5859" y2="232.5859"/><text fill="#000000" font-family="sans-serif" font-size="13" lengthAdjust="spacing" textLength="216.2329" x="56.3325" y="227.52">invoke (e.g. summon as director)</text></g><g class="message" data-entity-1="part2" data-entity-2="part3" id="msg2"><polygon fill="#181818" points="607.6914,257.7188,617.6914,261.7188,607.6914,265.7188,611.6914,261.7188" style="stroke:#181818;stroke-width:1;"/><line style="stroke:#181818;stroke-width:1;" x1="289.5654" x2="613.6914" y1="261.7188" y2="261.7188"/><text fill="#000000" font-family="sans-serif" font-size="13" lengthAdjust="spacing" textLength="153.1689" x="296.5654" y="256.6528">read SA key file for role</text></g><g class="message" data-entity-1="part3" data-entity-2="part2" id="msg3"><polygon fill="#181818" points="300.5654,286.8516,290.5654,290.8516,300.5654,294.8516,296.5654,290.8516" style="stroke:#181818;stroke-width:1;"/><line style="stroke:#181818;stroke-width:1;stroke-dasharray:2,2;" x1="294.5654" x2="618.6914" y1="290.8516" y2="290.8516"/><text fill="#000000" font-family="sans-serif" font-size="13" lengthAdjust="spacing" textLength="149.6016" x="306.5654" y="285.7856">SA email + private key</text></g><g class="message" data-entity-1="part2" data-entity-2="part2" id="msg4"><line style="stroke:#181818;stroke-width:1;" x1="289.5654" x2="331.5654" y1="350.25" y2="350.25"/><line style="stroke:#181818;stroke-width:1;" x1="331.5654" x2="331.5654" y1="350.25" y2="363.25"/><line style="stroke:#181818;stroke-width:1;" x1="290.5654" x2="331.5654" y1="363.25" y2="363.25"/><polygon fill="#181818" points="300.5654,359.25,290.5654,363.25,300.5654,367.25,296.5654,363.25" style="stroke:#181818;stroke-width:1;"/><text fill="#000000" font-family="sans-serif" font-size="13" lengthAdjust="spacing" textLength="169.895" x="296.5654" y="314.9185">build &amp; sign JWT assertion</text><text fill="#000000" font-family="sans-serif" font-size="13" lengthAdjust="spacing" textLength="316.126" x="296.5654" y="330.0513">(iss=SA email, aud=token endpoint, scope, exp)</text><text fill="#000000" font-family="sans-serif" font-size="13" lengthAdjust="spacing" textLength="173.564" x="296.5654" y="345.1841">signed with SA private key</text></g><rect fill="#EEEEEE" height="3" style="stroke:#EEEEEE;stroke-width:1;" width="965.4497" x="0" y="391.8164"/><line style="stroke:#000000;stroke-width:1;" x1="0" x2="965.4497" y1="391.8164" y2="391.8164"/><line style="stroke:#000000;stroke-width:1;" x1="0" x2="965.4497" y1="394.8164" y2="394.8164"/><rect fill="#EEEEEE" height="23.1328" style="stroke:#000000;stroke-width:2;" width="274.603" x="345.4233" y="381.25"/><text fill="#000000" font-family="sans-serif" font-size="13" font-weight="bold" lengthAdjust="spacing" textLength="256.0771" x="351.4233" y="397.3169">Token mint (signed-JWT exchange)</text><g class="message" data-entity-1="part2" data-entity-2="part4" id="msg5"><polygon fill="#181818" points="766.4438,461.7813,776.4438,465.7813,766.4438,469.7813,770.4438,465.7813" style="stroke:#181818;stroke-width:1;"/><line style="stroke:#181818;stroke-width:1;" x1="289.5654" x2="772.4438" y1="465.7813" y2="465.7813"/><text fill="#000000" font-family="sans-serif" font-size="13" lengthAdjust="spacing" textLength="79.5933" x="296.5654" y="430.4497">POST /token</text><text fill="#000000" font-family="sans-serif" font-size="13" lengthAdjust="spacing" textLength="368.3672" x="296.5654" y="445.5825">grant_type=urn:ietf:params:oauth:grant-type:jwt-bearer</text><text fill="#000000" font-family="sans-serif" font-size="13" lengthAdjust="spacing" textLength="164.3218" x="296.5654" y="460.7153">assertion=&lt;signed JWT&gt;</text></g><g class="message" data-entity-1="part4" data-entity-2="part2" id="msg6"><polygon fill="#181818" points="300.5654,490.9141,290.5654,494.9141,300.5654,498.9141,296.5654,494.9141" style="stroke:#181818;stroke-width:1;"/><line style="stroke:#181818;stroke-width:1;stroke-dasharray:2,2;" x1="294.5654" x2="777.4438" y1="494.9141" y2="494.9141"/><text fill="#000000" font-family="sans-serif" font-size="13" lengthAdjust="spacing" textLength="160.5195" x="306.5654" y="489.8481">short-lived access_token</text></g><rect fill="#EEEEEE" height="3" style="stroke:#EEEEEE;stroke-width:1;" width="965.4497" x="0" y="523.4805"/><line style="stroke:#000000;stroke-width:1;" x1="0" x2="965.4497" y1="523.4805" y2="523.4805"/><line style="stroke:#000000;stroke-width:1;" x1="0" x2="965.4497" y1="526.4805" y2="526.4805"/><rect fill="#EEEEEE" height="23.1328" style="stroke:#000000;stroke-width:2;" width="231.6675" x="366.8911" y="512.9141"/><text fill="#000000" font-family="sans-serif" font-size="13" font-weight="bold" lengthAdjust="spacing" textLength="213.1416" x="372.8911" y="528.981">Downstream &#226;&#128;&#148; model-blind</text><g class="message" data-entity-1="part2" data-entity-2="part5" id="msg7"><polygon fill="#181818" points="906.9829,563.1797,916.9829,567.1797,906.9829,571.1797,910.9829,567.1797" style="stroke:#181818;stroke-width:1;"/><line style="stroke:#181818;stroke-width:1;" x1="289.5654" x2="912.9829" y1="567.1797" y2="567.1797"/><text fill="#000000" font-family="sans-serif" font-size="13" lengthAdjust="spacing" textLength="252.1924" x="296.5654" y="562.1138">Authorization: Bearer &lt;access_token&gt;</text></g><g class="message" data-entity-1="part5" data-entity-2="part2" id="msg8"><polygon fill="#181818" points="300.5654,592.3125,290.5654,596.3125,300.5654,600.3125,296.5654,596.3125" style="stroke:#181818;stroke-width:1;"/><line style="stroke:#181818;stroke-width:1;stroke-dasharray:2,2;" x1="294.5654" x2="917.9829" y1="596.3125" y2="596.3125"/><text fill="#000000" font-family="sans-serif" font-size="13" lengthAdjust="spacing" textLength="101.0166" x="306.5654" y="591.2466">depot response</text></g><path d="M5,609.3125 L5,664.3125 L664,664.3125 L664,619.3125 L654,609.3125 L5,609.3125" fill="#FEFFDD" style="stroke:#181818;stroke-width:0.5;"/><path d="M654,609.3125 L654,619.3125 L664,619.3125 L654,609.3125" fill="#FEFFDD" style="stroke:#181818;stroke-width:0.5;"/><text fill="#000000" font-family="sans-serif" font-size="13" lengthAdjust="spacing" textLength="241.8584" x="168.5491" y="626.3794">Revocation = rotate / delete the key.</text><text fill="#000000" font-family="sans-serif" font-size="13" lengthAdjust="spacing" textLength="262.9326" x="168.5491" y="641.5122">The one durable secret lives on disk &#226;&#128;&#148;</text><text fill="#000000" font-family="sans-serif" font-size="13" lengthAdjust="spacing" textLength="323.2734" x="168.5491" y="656.645">exactly what the federation tier exists to remove.</text><?plantuml-src RLJ1Qjj04BthAuOSYkrQIZ2q1H45aWPCcrAPsD2B8QorOsbhQKVTNTbnJ_s8Va4_9Vsnpgxbn86Uj5gzcVTcvesSSZN27UxNYfyBXGR-_ddwzVGRyXQDS6JW2vLAmw3eZ47jm5QgRPKkmJ5u30LfPuHrmwMUKsSAJA71XkB9nUJznRl9XvZwF75XK7829Ugu8OcrJHePHQBm76T7jgKUL5qZzF0CX8Ly5hN2E5MeLZ3rsVtD7Io8QaRjo6oi4qvHZrta-PT82YTMmgA7tb_31lVW2sFy_F166gIocqE8nxmcc1ALt8VykdFLKfFWnoGfmwLebKqAQaBaDC-dhoDliIK7rxDFp3NzE3iGy26AD3a4sd9dyzauS48ANyb_13AbqEfdA0CC_kWKDobPwj5eHjQYjVwUrk0g3FAL3KSL6kdsoMWKHVaCugjGFkTLUaiRX04cPGAsQngEPo6Iy_f63wE0Otolmw2GC7_f5Anv6ePgZ08WVidC86o4gk4jj4PjXGkAdlFrg5MdQWblmAfIm-Tl2oQtQ7nvt1TbRNPCCmRHoSonM0sePKjAkp7OWkqo1dnisKy-1qhOALTvzbFMAClO23wsuJWO7A2n9yJ7eXAwn25asRCwFozMDyld2pWFf4jT6XxSWzktc7L6fmhTEkMHYiQcOV1f0CGUa7xVkNY5mY0RzBcYxB9NoBHNKQ0uwPUjoBYuLbi6YABWMJu4ug3zbdRQEcv-Sroti1BngbPQlXBE9ad1sv5CxvCKRe8Ik3nDom8OUi8lWo4DsfQqnV-xy1wtL1pCb_7KdM_lEKVMo8VUS-p61Pz88yZEY1Lxn2BliWDVcprkL5_7KkCZhtIzXrqbNCYnvhKt1nB_o-01AUlOnyJY6bQKHFy0?></g></svg>