<?plantuml 1.2026.2?><svg xmlns="http://www.w3.org/2000/svg" xmlns:xlink="http://www.w3.org/1999/xlink" contentStyleType="text/css" data-diagram-type="SEQUENCE" height="1582px" preserveAspectRatio="none" style="width:1229px;height:1582px;background:#FFFFFF;" version="1.1" viewBox="0 0 1229 1582" width="1229px" zoomAndPan="magnify"><title>The Provenance Tale - how an image earns crucible trust
Source: RBSYP-chapbook_provenance.adoc (derived presentation of the marker skeleton)</title><defs/><g><text fill="#000000" font-family="sans-serif" font-size="14" font-weight="bold" lengthAdjust="spacing" textLength="450.1602" x="385.4536" y="27.9951">The Provenance Tale - how an image earns crucible trust</text><text fill="#000000" font-family="sans-serif" font-size="14" font-weight="bold" lengthAdjust="spacing" textLength="710.4863" x="255.2905" y="44.292">Source: RBSYP-chapbook_provenance.adoc (derived presentation of the marker skeleton)</text><rect fill="#DDDDDD" height="1516.4375" style="stroke:#181818;stroke-width:0.5;" width="168.042" x="377.4443" y="59.5938"/><text fill="#000000" font-family="sans-serif" font-size="13" font-weight="bold" lengthAdjust="spacing" textLength="113.5215" x="404.7046" y="71.6606">committed tree</text><rect fill="#DDDDDD" height="1516.4375" style="stroke:#181818;stroke-width:0.5;" width="260.04" x="547.4863" y="59.5938"/><text fill="#000000" font-family="sans-serif" font-size="13" font-weight="bold" lengthAdjust="spacing" textLength="39.6538" x="657.6794" y="71.6606">cloud</text><rect fill="#DDDDDD" height="1516.4375" style="stroke:#181818;stroke-width:0.5;" width="159.3945" x="1061.6729" y="59.5938"/><text fill="#000000" font-family="sans-serif" font-size="13" font-weight="bold" lengthAdjust="spacing" textLength="30.7417" x="1125.9993" y="71.6606">GAR</text><g><title>Google Cloud Build</title><rect fill="#FFFFFF" height="58.2656" style="stroke:#181818;stroke-width:1;" width="10" x="620.188" y="209.1563"/></g><g><title>Google Cloud Build</title><rect fill="#FFFFFF" height="58.2656" style="stroke:#181818;stroke-width:1;" width="10" x="620.188" y="520.4844"/></g><g><title>Google Cloud Build</title><rect fill="#FFFFFF" height="58.2656" style="stroke:#181818;stroke-width:1;" width="10" x="620.188" y="817.8125"/></g><g><title>Google Cloud Build</title><rect fill="#FFFFFF" height="29.1328" style="stroke:#181818;stroke-width:1;" width="10" x="620.188" y="934.3438"/></g><g><title>Google Cloud Build</title><rect fill="#FFFFFF" height="29.1328" style="stroke:#181818;stroke-width:1;" width="10" x="620.188" y="1042.875"/></g><g><title>Google Cloud Build</title><rect fill="#FFFFFF" height="29.1328" style="stroke:#181818;stroke-width:1;" width="10" x="620.188" y="1173.4063"/></g><g><title>Google Cloud Build</title><rect fill="#FFFFFF" height="29.1328" style="stroke:#181818;stroke-width:1;" width="10" x="620.188" y="1391.3359"/></g><g class="participant-lifeline" data-entity-uid="part1" data-qualified-name="DIR" id="part1-lifeline"><g><title>Director Role</title><rect fill="#000000" fill-opacity="0.00000" height="1361.8438" width="8" x="49.8965" y="134.8906"/><line style="stroke:#181818;stroke-width:0.5;stroke-dasharray:5,5;" x1="53" x2="53" y1="134.8906" y2="1496.7344"/></g></g><g class="participant-lifeline" data-entity-uid="part2" data-qualified-name="RET" id="part2-lifeline"><g><title>Retriever Role</title><rect fill="#000000" fill-opacity="0.00000" height="1361.8438" width="8" x="161.7876" y="134.8906"/><line style="stroke:#181818;stroke-width:0.5;stroke-dasharray:5,5;" x1="164.793" x2="164.793" y1="134.8906" y2="1496.7344"/></g></g><g class="participant-lifeline" data-entity-uid="part3" data-qualified-name="VES" id="part3-lifeline"><g><title>Vessel</title><rect fill="#000000" fill-opacity="0.00000" height="1361.8438" width="8" x="407.085" y="134.8906"/><line style="stroke:#181818;stroke-width:0.5;stroke-dasharray:5,5;" x1="410.4443" x2="410.4443" y1="134.8906" y2="1496.7344"/></g></g><g class="participant-lifeline" data-entity-uid="part4" data-qualified-name="NPL" id="part4-lifeline"><g><title>Nameplate</title><rect fill="#000000" fill-opacity="0.00000" height="1361.8438" width="8" x="492.106" y="134.8906"/><line style="stroke:#181818;stroke-width:0.5;stroke-dasharray:5,5;" x1="495.7256" x2="495.7256" y1="134.8906" y2="1496.7344"/></g></g><g class="participant-lifeline" data-entity-uid="part5" data-qualified-name="GCB" id="part5-lifeline"><g><title>Google Cloud Build</title><rect fill="#000000" fill-opacity="0.00000" height="1361.8438" width="8" x="621.188" y="134.8906"/><line style="stroke:#181818;stroke-width:0.5;stroke-dasharray:5,5;" x1="624.4863" x2="624.4863" y1="134.8906" y2="1496.7344"/></g></g><g class="participant-lifeline" data-entity-uid="part6" data-qualified-name="MAS" id="part6-lifeline"><g><title>Mason Role</title><rect fill="#000000" fill-opacity="0.00000" height="1361.8438" width="8" x="752.208" y="134.8906"/><line style="stroke:#181818;stroke-width:0.5;stroke-dasharray:5,5;" x1="755.8896" x2="755.8896" y1="134.8906" y2="1496.7344"/></g></g><g class="participant-lifeline" data-entity-uid="part7" data-qualified-name="LODE" id="part7-lifeline"><g><title>Lode</title><rect fill="#000000" fill-opacity="0.00000" height="1361.8438" width="8" x="1085.6055" y="134.8906"/><line style="stroke:#181818;stroke-width:0.5;stroke-dasharray:5,5;" x1="1088.6729" x2="1088.6729" y1="134.8906" y2="1496.7344"/></g></g><g class="participant-lifeline" data-entity-uid="part8" data-qualified-name="HM" id="part8-lifeline"><g><title>rbi_hm</title><rect fill="#000000" fill-opacity="0.00000" height="1361.8438" width="8" x="1166.3027" y="134.8906"/><line style="stroke:#181818;stroke-width:0.5;stroke-dasharray:5,5;" x1="1169.5381" x2="1169.5381" y1="134.8906" y2="1496.7344"/></g></g><g class="participant participant-head" data-entity-uid="part1" data-qualified-name="DIR" id="part1-head"><text fill="#000000" font-family="sans-serif" font-size="14" lengthAdjust="spacing" textLength="91.793" x="5" y="131.5889">Director Role</text><ellipse cx="53.8965" cy="67.0938" fill="#E2E2F0" rx="8" ry="8" style="stroke:#181818;stroke-width:0.5;"/><path d="M53.8965,75.0938 L53.8965,102.0938 M40.8965,83.0938 L66.8965,83.0938 M53.8965,102.0938 L40.8965,117.0938 M53.8965,102.0938 L66.8965,117.0938" fill="none" style="stroke:#181818;stroke-width:0.5;"/></g><g class="participant participant-tail" data-entity-uid="part1" data-qualified-name="DIR" id="part1-tail"><text fill="#000000" font-family="sans-serif" font-size="14" lengthAdjust="spacing" textLength="91.793" x="5" y="1508.7295">Director Role</text><ellipse cx="53.8965" cy="1520.5313" fill="#E2E2F0" rx="8" ry="8" style="stroke:#181818;stroke-width:0.5;"/><path d="M53.8965,1528.5313 L53.8965,1555.5313 M40.8965,1536.5313 L66.8965,1536.5313 M53.8965,1555.5313 L40.8965,1570.5313 M53.8965,1555.5313 L66.8965,1570.5313" fill="none" style="stroke:#181818;stroke-width:0.5;"/></g><g class="participant participant-head" data-entity-uid="part2" data-qualified-name="RET" id="part2-head"><text fill="#000000" font-family="sans-serif" font-size="14" lengthAdjust="spacing" textLength="99.9893" x="112.793" y="131.5889">Retriever Role</text><ellipse cx="165.7876" cy="67.0938" fill="#E2E2F0" rx="8" ry="8" style="stroke:#181818;stroke-width:0.5;"/><path d="M165.7876,75.0938 L165.7876,102.0938 M152.7876,83.0938 L178.7876,83.0938 M165.7876,102.0938 L152.7876,117.0938 M165.7876,102.0938 L178.7876,117.0938" fill="none" style="stroke:#181818;stroke-width:0.5;"/></g><g class="participant participant-tail" data-entity-uid="part2" data-qualified-name="RET" id="part2-tail"><text fill="#000000" font-family="sans-serif" font-size="14" lengthAdjust="spacing" textLength="99.9893" x="112.793" y="1508.7295">Retriever Role</text><ellipse cx="165.7876" cy="1520.5313" fill="#E2E2F0" rx="8" ry="8" style="stroke:#181818;stroke-width:0.5;"/><path d="M165.7876,1528.5313 L165.7876,1555.5313 M152.7876,1536.5313 L178.7876,1536.5313 M165.7876,1555.5313 L152.7876,1570.5313 M165.7876,1555.5313 L178.7876,1570.5313" fill="none" style="stroke:#181818;stroke-width:0.5;"/></g><g class="participant participant-head" data-entity-uid="part3" data-qualified-name="VES" id="part3-head"><rect fill="#E2E2F0" height="30.2969" rx="2.5" ry="2.5" style="stroke:#181818;stroke-width:0.5;" width="59.2813" x="381.4443" y="103.5938"/><text fill="#000000" font-family="sans-serif" font-size="14" lengthAdjust="spacing" textLength="45.2813" x="388.4443" y="123.5889">Vessel</text></g><g class="participant participant-tail" data-entity-uid="part3" data-qualified-name="VES" id="part3-tail"><rect fill="#E2E2F0" height="30.2969" rx="2.5" ry="2.5" style="stroke:#181818;stroke-width:0.5;" width="59.2813" x="381.4443" y="1495.7344"/><text fill="#000000" font-family="sans-serif" font-size="14" lengthAdjust="spacing" textLength="45.2813" x="388.4443" y="1515.7295">Vessel</text></g><g class="participant participant-head" data-entity-uid="part4" data-qualified-name="NPL" id="part4-head"><rect fill="#E2E2F0" height="30.2969" rx="2.5" ry="2.5" style="stroke:#181818;stroke-width:0.5;" width="90.7607" x="450.7256" y="103.5938"/><text fill="#000000" font-family="sans-serif" font-size="14" lengthAdjust="spacing" textLength="76.7607" x="457.7256" y="123.5889">Nameplate</text></g><g class="participant participant-tail" data-entity-uid="part4" data-qualified-name="NPL" id="part4-tail"><rect fill="#E2E2F0" height="30.2969" rx="2.5" ry="2.5" style="stroke:#181818;stroke-width:0.5;" width="90.7607" x="450.7256" y="1495.7344"/><text fill="#000000" font-family="sans-serif" font-size="14" lengthAdjust="spacing" textLength="76.7607" x="457.7256" y="1515.7295">Nameplate</text></g><g class="participant participant-head" data-entity-uid="part5" data-qualified-name="GCB" id="part5-head"><rect fill="#E2E2F0" height="30.2969" rx="2.5" ry="2.5" style="stroke:#181818;stroke-width:0.5;" width="147.4033" x="551.4863" y="103.5938"/><text fill="#000000" font-family="sans-serif" font-size="14" lengthAdjust="spacing" textLength="133.4033" x="558.4863" y="123.5889">Google Cloud Build</text></g><g class="participant participant-tail" data-entity-uid="part5" data-qualified-name="GCB" id="part5-tail"><rect fill="#E2E2F0" height="30.2969" rx="2.5" ry="2.5" style="stroke:#181818;stroke-width:0.5;" width="147.4033" x="551.4863" y="1495.7344"/><text fill="#000000" font-family="sans-serif" font-size="14" lengthAdjust="spacing" textLength="133.4033" x="558.4863" y="1515.7295">Google Cloud Build</text></g><g class="participant participant-head" data-entity-uid="part6" data-qualified-name="MAS" id="part6-head"><rect fill="#E2E2F0" height="30.2969" rx="2.5" ry="2.5" style="stroke:#181818;stroke-width:0.5;" width="94.6367" x="708.8896" y="103.5938"/><text fill="#000000" font-family="sans-serif" font-size="14" lengthAdjust="spacing" textLength="80.6367" x="715.8896" y="123.5889">Mason Role</text></g><g class="participant participant-tail" data-entity-uid="part6" data-qualified-name="MAS" id="part6-tail"><rect fill="#E2E2F0" height="30.2969" rx="2.5" ry="2.5" style="stroke:#181818;stroke-width:0.5;" width="94.6367" x="708.8896" y="1495.7344"/><text fill="#000000" font-family="sans-serif" font-size="14" lengthAdjust="spacing" textLength="80.6367" x="715.8896" y="1515.7295">Mason Role</text></g><g class="participant participant-head" data-entity-uid="part7" data-qualified-name="LODE" id="part7-head"><rect fill="#E2E2F0" height="30.2969" rx="2.5" ry="2.5" style="stroke:#181818;stroke-width:0.5;" width="47.8652" x="1065.6729" y="103.5938"/><text fill="#000000" font-family="sans-serif" font-size="14" lengthAdjust="spacing" textLength="33.8652" x="1072.6729" y="123.5889">Lode</text></g><g class="participant participant-tail" data-entity-uid="part7" data-qualified-name="LODE" id="part7-tail"><rect fill="#E2E2F0" height="30.2969" rx="2.5" ry="2.5" style="stroke:#181818;stroke-width:0.5;" width="47.8652" x="1065.6729" y="1495.7344"/><text fill="#000000" font-family="sans-serif" font-size="14" lengthAdjust="spacing" textLength="33.8652" x="1072.6729" y="1515.7295">Lode</text></g><g class="participant participant-head" data-entity-uid="part8" data-qualified-name="HM" id="part8-head"><rect fill="#E2E2F0" height="46.5938" rx="2.5" ry="2.5" style="stroke:#181818;stroke-width:0.5;" width="93.5293" x="1123.5381" y="87.2969"/><text fill="#000000" font-family="sans-serif" font-size="14" lengthAdjust="spacing" textLength="48.043" x="1146.2813" y="107.292">rbi_hm</text><text fill="#000000" font-family="sans-serif" font-size="14" lengthAdjust="spacing" textLength="79.5293" x="1130.5381" y="123.5889">(hallmarks)</text></g><g class="participant participant-tail" data-entity-uid="part8" data-qualified-name="HM" id="part8-tail"><rect fill="#E2E2F0" height="46.5938" rx="2.5" ry="2.5" style="stroke:#181818;stroke-width:0.5;" width="93.5293" x="1123.5381" y="1495.7344"/><text fill="#000000" font-family="sans-serif" font-size="14" lengthAdjust="spacing" textLength="48.043" x="1146.2813" y="1515.7295">rbi_hm</text><text fill="#000000" font-family="sans-serif" font-size="14" lengthAdjust="spacing" textLength="79.5293" x="1130.5381" y="1532.0264">(hallmarks)</text></g><g><title>Google Cloud Build</title><rect fill="#FFFFFF" height="58.2656" style="stroke:#181818;stroke-width:1;" width="10" x="620.188" y="209.1563"/></g><g><title>Google Cloud Build</title><rect fill="#FFFFFF" height="58.2656" style="stroke:#181818;stroke-width:1;" width="10" x="620.188" y="520.4844"/></g><g><title>Google Cloud Build</title><rect fill="#FFFFFF" height="58.2656" style="stroke:#181818;stroke-width:1;" width="10" x="620.188" y="817.8125"/></g><g><title>Google Cloud Build</title><rect fill="#FFFFFF" height="29.1328" style="stroke:#181818;stroke-width:1;" width="10" x="620.188" y="934.3438"/></g><g><title>Google Cloud Build</title><rect fill="#FFFFFF" height="29.1328" style="stroke:#181818;stroke-width:1;" width="10" x="620.188" y="1042.875"/></g><g><title>Google Cloud Build</title><rect fill="#FFFFFF" height="29.1328" style="stroke:#181818;stroke-width:1;" width="10" x="620.188" y="1173.4063"/></g><g><title>Google Cloud Build</title><rect fill="#FFFFFF" height="29.1328" style="stroke:#181818;stroke-width:1;" width="10" x="620.188" y="1391.3359"/></g><rect fill="#EEEEEE" height="3" style="stroke:#EEEEEE;stroke-width:1;" width="1222.0674" x="0" y="165.457"/><line style="stroke:#000000;stroke-width:1;" x1="0" x2="1222.0674" y1="165.457" y2="165.457"/><line style="stroke:#000000;stroke-width:1;" x1="0" x2="1222.0674" y1="168.457" y2="168.457"/><rect fill="#EEEEEE" height="23.1328" style="stroke:#000000;stroke-width:2;" width="291.2275" x="465.4199" y="154.8906"/><text fill="#000000" font-family="sans-serif" font-size="13" font-weight="bold" lengthAdjust="spacing" textLength="272.7017" x="471.4199" y="170.9575">Movement I - The Reliquary Conclave</text><g class="message" data-entity-1="part1" data-entity-2="part5" id="msg1"><polygon fill="#181818" points="608.188,205.1563,618.188,209.1563,608.188,213.1563,612.188,209.1563" style="stroke:#181818;stroke-width:1;"/><line style="stroke:#181818;stroke-width:1;" x1="53.8965" x2="614.188" y1="209.1563" y2="209.1563"/><text fill="#000000" font-family="sans-serif" font-size="13" lengthAdjust="spacing" textLength="89.7178" x="60.8965" y="204.0903">rbld_conclave</text></g><g class="message" data-entity-1="part6" data-entity-2="part7" id="msg2"><polygon fill="#181818" points="1077.6055,234.2891,1087.6055,238.2891,1077.6055,242.2891,1081.6055,238.2891" style="stroke:#181818;stroke-width:1;"/><line style="stroke:#181818;stroke-width:1;" x1="756.208" x2="1083.6055" y1="238.2891" y2="238.2891"/><text fill="#000000" font-family="sans-serif" font-size="13" lengthAdjust="spacing" textLength="309.3975" x="763.208" y="233.2231">rbld_conclave (mint reliquary Lode, seal vouch)</text></g><g class="message" data-entity-1="part5" data-entity-2="part1" id="msg3"><polygon fill="#181818" points="64.8965,263.4219,54.8965,267.4219,64.8965,271.4219,60.8965,267.4219" style="stroke:#181818;stroke-width:1;"/><line style="stroke:#181818;stroke-width:1;stroke-dasharray:2,2;" x1="58.8965" x2="624.188" y1="267.4219" y2="267.4219"/><text fill="#000000" font-family="sans-serif" font-size="13" font-weight="bold" lengthAdjust="spacing" textLength="123.811" x="70.8965" y="262.356">touchmark home</text><text fill="#000000" font-family="sans-serif" font-size="13" lengthAdjust="spacing" textLength="57.2368" x="198.8398" y="262.356">(rbf fact)</text></g><g class="message" data-entity-1="part1" data-entity-2="part3" id="msg4"><polygon fill="#181818" points="399.085,292.5547,409.085,296.5547,399.085,300.5547,403.085,296.5547" style="stroke:#181818;stroke-width:1;"/><line style="stroke:#181818;stroke-width:1;" x1="53.8965" x2="405.085" y1="296.5547" y2="296.5547"/><text fill="#000000" font-family="sans-serif" font-size="13" lengthAdjust="spacing" textLength="322.9053" x="60.8965" y="291.4888">rbfl_yoke (RBRV_RELIQUARY, all vessels; commit)</text></g><rect fill="#EEEEEE" height="3" style="stroke:#EEEEEE;stroke-width:1;" width="1222.0674" x="0" y="325.1211"/><line style="stroke:#000000;stroke-width:1;" x1="0" x2="1222.0674" y1="325.1211" y2="325.1211"/><line style="stroke:#000000;stroke-width:1;" x1="0" x2="1222.0674" y1="328.1211" y2="328.1211"/><rect fill="#EEEEEE" height="23.1328" style="stroke:#000000;stroke-width:2;" width="249.5171" x="486.2751" y="314.5547"/><text fill="#000000" font-family="sans-serif" font-size="13" font-weight="bold" lengthAdjust="spacing" textLength="230.9912" x="492.2751" y="330.6216">Movement II - The Local Kludge</text><g class="message" data-entity-1="part1" data-entity-2="part3" id="msg5"><polygon fill="#181818" points="399.085,364.8203,409.085,368.8203,399.085,372.8203,403.085,368.8203" style="stroke:#181818;stroke-width:1;"/><line style="stroke:#181818;stroke-width:1;" x1="53.8965" x2="405.085" y1="368.8203" y2="368.8203"/><text fill="#000000" font-family="sans-serif" font-size="13" lengthAdjust="spacing" textLength="333.1885" x="60.8965" y="363.7544">rbfk_kludge (sentry + bottle, local; mints hallmark)</text></g><g class="message" data-entity-1="part1" data-entity-2="part4" id="msg6"><polygon fill="#181818" points="484.106,393.9531,494.106,397.9531,484.106,401.9531,488.106,397.9531" style="stroke:#181818;stroke-width:1;"/><line style="stroke:#181818;stroke-width:1;" x1="53.8965" x2="490.106" y1="397.9531" y2="397.9531"/><text fill="#000000" font-family="sans-serif" font-size="13" lengthAdjust="spacing" textLength="273.5903" x="60.8965" y="392.8872">rbrn_drive (composed by kludge; commit)</text></g><g class="message" data-entity-1="part1" data-entity-2="part3" id="msg7"><polygon fill="#181818" points="399.085,433.6523,409.085,437.6523,399.085,441.6523,403.085,437.6523" style="stroke:#181818;stroke-width:1;"/><line style="stroke:#181818;stroke-width:1;" x1="53.8965" x2="405.085" y1="437.6523" y2="437.6523"/><text fill="#000000" font-family="sans-serif" font-size="13" lengthAdjust="spacing" textLength="247.5586" x="60.8965" y="432.5864">anoint (RBRV_GRAFT_IMAGE; commit)</text></g><path d="M416,410.9531 L416,450.9531 L628,450.9531 L628,420.9531 L618,410.9531 L416,410.9531" fill="#FEFFDD" style="stroke:#181818;stroke-width:0.5;"/><path d="M618,410.9531 L618,420.9531 L628,420.9531 L618,410.9531" fill="#FEFFDD" style="stroke:#181818;stroke-width:0.5;"/><text fill="#000000" font-family="sans-serif" font-size="13" lengthAdjust="spacing" textLength="191.1978" x="422" y="428.02">uncatalogued - surfaced gap:</text><text fill="#000000" font-family="sans-serif" font-size="13" lengthAdjust="spacing" textLength="168.3398" x="422" y="443.1528">no operation quoin to cite</text><rect fill="#EEEEEE" height="3" style="stroke:#EEEEEE;stroke-width:1;" width="1222.0674" x="0" y="476.7852"/><line style="stroke:#000000;stroke-width:1;" x1="0" x2="1222.0674" y1="476.7852" y2="476.7852"/><line style="stroke:#000000;stroke-width:1;" x1="0" x2="1222.0674" y1="479.7852" y2="479.7852"/><rect fill="#EEEEEE" height="23.1328" style="stroke:#000000;stroke-width:2;" width="290.0977" x="465.9849" y="466.2188"/><text fill="#000000" font-family="sans-serif" font-size="13" font-weight="bold" lengthAdjust="spacing" textLength="271.5718" x="471.9849" y="482.2856">Movement III - Conjure on the Tether</text><g class="message" data-entity-1="part1" data-entity-2="part5" id="msg9"><polygon fill="#181818" points="608.188,516.4844,618.188,520.4844,608.188,524.4844,612.188,520.4844" style="stroke:#181818;stroke-width:1;"/><line style="stroke:#181818;stroke-width:1;" x1="53.8965" x2="614.188" y1="520.4844" y2="520.4844"/><text fill="#000000" font-family="sans-serif" font-size="13" lengthAdjust="spacing" textLength="178.1025" x="60.8965" y="515.4185">rbfd_ordain (conjure mode)</text></g><g class="message" data-entity-1="part6" data-entity-2="part8" id="msg10"><polygon fill="#181818" points="1158.3027,545.6172,1168.3027,549.6172,1158.3027,553.6172,1162.3027,549.6172" style="stroke:#181818;stroke-width:1;"/><line style="stroke:#181818;stroke-width:1;" x1="756.208" x2="1164.3027" y1="549.6172" y2="549.6172"/><text fill="#000000" font-family="sans-serif" font-size="13" lengthAdjust="spacing" textLength="345.4839" x="763.208" y="544.5513">rbfd_build (ark set: image, about, vouch, attestation)</text></g><g class="message" data-entity-1="part5" data-entity-2="part1" id="msg11"><polygon fill="#181818" points="64.8965,574.75,54.8965,578.75,64.8965,582.75,60.8965,578.75" style="stroke:#181818;stroke-width:1;"/><line style="stroke:#181818;stroke-width:1;stroke-dasharray:2,2;" x1="58.8965" x2="624.188" y1="578.75" y2="578.75"/><text fill="#000000" font-family="sans-serif" font-size="13" font-weight="bold" lengthAdjust="spacing" textLength="109.3892" x="70.8965" y="573.6841">hallmark home</text><text fill="#000000" font-family="sans-serif" font-size="13" lengthAdjust="spacing" textLength="71.0303" x="184.418" y="573.6841">(build fact)</text></g><g class="message" data-entity-1="part1" data-entity-2="part8" id="msg12"><polygon fill="#181818" points="1158.3027,603.8828,1168.3027,607.8828,1158.3027,611.8828,1162.3027,607.8828" style="stroke:#181818;stroke-width:1;"/><line style="stroke:#181818;stroke-width:1;" x1="53.8965" x2="1164.3027" y1="607.8828" y2="607.8828"/><text fill="#000000" font-family="sans-serif" font-size="13" lengthAdjust="spacing" textLength="251.4878" x="60.8965" y="602.8169">rbfv_batch_vouch (SLSA, mode-aware)</text></g><g class="message" data-entity-1="part2" data-entity-2="part8" id="msg13"><polygon fill="#181818" points="1158.3027,633.0156,1168.3027,637.0156,1158.3027,641.0156,1162.3027,637.0156" style="stroke:#181818;stroke-width:1;"/><line style="stroke:#181818;stroke-width:1;" x1="165.7876" x2="1164.3027" y1="637.0156" y2="637.0156"/><text fill="#000000" font-family="sans-serif" font-size="13" lengthAdjust="spacing" textLength="210.2026" x="172.7876" y="631.9497">rbfr_summon (vouch-gated pull)</text></g><g class="message" data-entity-1="part2" data-entity-2="part8" id="msg14"><polygon fill="#181818" points="1158.3027,662.1484,1168.3027,666.1484,1158.3027,670.1484,1162.3027,666.1484" style="stroke:#181818;stroke-width:1;"/><line style="stroke:#181818;stroke-width:1;" x1="165.7876" x2="1164.3027" y1="666.1484" y2="666.1484"/><text fill="#000000" font-family="sans-serif" font-size="13" lengthAdjust="spacing" textLength="269.2358" x="172.7876" y="661.0825">rbfc_plumb (full: SLSA, SBOM, Dockerfile)</text></g><g class="message" data-entity-1="part1" data-entity-2="part8" id="msg15"><polygon fill="#181818" points="1158.3027,691.2813,1168.3027,695.2813,1158.3027,699.2813,1162.3027,695.2813" style="stroke:#181818;stroke-width:1;"/><line style="stroke:#181818;stroke-width:1;" x1="53.8965" x2="1164.3027" y1="695.2813" y2="695.2813"/><text fill="#000000" font-family="sans-serif" font-size="13" lengthAdjust="spacing" textLength="281.417" x="60.8965" y="690.2153">Image Rekon (canonical members present)</text></g><g class="message" data-entity-1="part1" data-entity-2="part4" id="msg16"><polygon fill="#181818" points="484.106,730.9805,494.106,734.9805,484.106,738.9805,488.106,734.9805" style="stroke:#181818;stroke-width:1;"/><line style="stroke:#181818;stroke-width:1;" x1="53.8965" x2="490.106" y1="734.9805" y2="734.9805"/><text fill="#000000" font-family="sans-serif" font-size="13" lengthAdjust="spacing" textLength="228.96" x="60.8965" y="729.9146">rbrn_drive (all consumers; commit)</text></g><path d="M501,708.2813 L501,748.2813 L781,748.2813 L781,718.2813 L771,708.2813 L501,708.2813" fill="#FEFFDD" style="stroke:#181818;stroke-width:0.5;"/><path d="M771,708.2813 L771,718.2813 L781,718.2813 L771,708.2813" fill="#FEFFDD" style="stroke:#181818;stroke-width:0.5;"/><text fill="#000000" font-family="sans-serif" font-size="13" lengthAdjust="spacing" textLength="259.7651" x="507" y="725.3481">oracle reruns this arc for a bottle vessel</text><text fill="#000000" font-family="sans-serif" font-size="13" lengthAdjust="spacing" textLength="240.6587" x="507" y="740.481">with only the drive tail (jupyter case)</text><rect fill="#EEEEEE" height="3" style="stroke:#EEEEEE;stroke-width:1;" width="1222.0674" x="0" y="774.1133"/><line style="stroke:#000000;stroke-width:1;" x1="0" x2="1222.0674" y1="774.1133" y2="774.1133"/><line style="stroke:#000000;stroke-width:1;" x1="0" x2="1222.0674" y1="777.1133" y2="777.1133"/><rect fill="#EEEEEE" height="23.1328" style="stroke:#000000;stroke-width:2;" width="254.9697" x="483.5488" y="763.5469"/><text fill="#000000" font-family="sans-serif" font-size="13" font-weight="bold" lengthAdjust="spacing" textLength="236.4438" x="489.5488" y="779.6138">Movement IV - The Airgap Chain</text><g class="message" data-entity-1="part1" data-entity-2="part5" id="msg18"><polygon fill="#181818" points="608.188,813.8125,618.188,817.8125,608.188,821.8125,612.188,817.8125" style="stroke:#181818;stroke-width:1;"/><line style="stroke:#181818;stroke-width:1;" x1="53.8965" x2="614.188" y1="817.8125" y2="817.8125"/><text fill="#000000" font-family="sans-serif" font-size="13" lengthAdjust="spacing" textLength="243.4453" x="60.8965" y="812.7466">rbld_ensconce (forge upstream base)</text></g><g class="message" data-entity-1="part6" data-entity-2="part7" id="msg19"><polygon fill="#181818" points="1077.6055,842.9453,1087.6055,846.9453,1077.6055,850.9453,1081.6055,846.9453" style="stroke:#181818;stroke-width:1;"/><line style="stroke:#181818;stroke-width:1;" x1="756.208" x2="1083.6055" y1="846.9453" y2="846.9453"/><text fill="#000000" font-family="sans-serif" font-size="13" lengthAdjust="spacing" textLength="275.7422" x="763.208" y="841.8794">rbld_ensconce (capture bytes, seal vouch)</text></g><g class="message" data-entity-1="part5" data-entity-2="part1" id="msg20"><polygon fill="#181818" points="64.8965,872.0781,54.8965,876.0781,64.8965,880.0781,60.8965,876.0781" style="stroke:#181818;stroke-width:1;"/><line style="stroke:#181818;stroke-width:1;stroke-dasharray:2,2;" x1="58.8965" x2="624.188" y1="876.0781" y2="876.0781"/><text fill="#000000" font-family="sans-serif" font-size="13" font-weight="bold" lengthAdjust="spacing" textLength="159.8467" x="70.8965" y="871.0122">bole touchmark home</text><text fill="#000000" font-family="sans-serif" font-size="13" lengthAdjust="spacing" textLength="57.2368" x="234.8755" y="871.0122">(rbf fact)</text></g><g class="message" data-entity-1="part1" data-entity-2="part3" id="msg21"><polygon fill="#181818" points="399.085,901.2109,409.085,905.2109,399.085,909.2109,403.085,905.2109" style="stroke:#181818;stroke-width:1;"/><line style="stroke:#181818;stroke-width:1;" x1="53.8965" x2="405.085" y1="905.2109" y2="905.2109"/><text fill="#000000" font-family="sans-serif" font-size="13" lengthAdjust="spacing" textLength="328.4595" x="60.8965" y="900.145">rbfl_feoff (elect RBRV_IMAGE_n_ANCHOR; commit)</text></g><g class="message" data-entity-1="part1" data-entity-2="part5" id="msg22"><polygon fill="#181818" points="608.188,930.3438,618.188,934.3438,608.188,938.3438,612.188,934.3438" style="stroke:#181818;stroke-width:1;"/><line style="stroke:#181818;stroke-width:1;" x1="53.8965" x2="614.188" y1="934.3438" y2="934.3438"/><text fill="#000000" font-family="sans-serif" font-size="13" lengthAdjust="spacing" textLength="353.5073" x="60.8965" y="929.2778">rbfd_ordain (forge, tethered; builds from Lode anchor)</text></g><g class="message" data-entity-1="part5" data-entity-2="part1" id="msg23"><polygon fill="#181818" points="64.8965,959.4766,54.8965,963.4766,64.8965,967.4766,60.8965,963.4766" style="stroke:#181818;stroke-width:1;"/><line style="stroke:#181818;stroke-width:1;stroke-dasharray:2,2;" x1="58.8965" x2="624.188" y1="963.4766" y2="963.4766"/><text fill="#000000" font-family="sans-serif" font-size="13" font-weight="bold" lengthAdjust="spacing" textLength="153.0356" x="70.8965" y="958.4106">forge hallmark home</text></g><g class="message" data-entity-1="part1" data-entity-2="part3" id="msg24"><polygon fill="#181818" points="399.085,999.1758,409.085,1003.1758,399.085,1007.1758,403.085,1003.1758" style="stroke:#181818;stroke-width:1;"/><line style="stroke:#181818;stroke-width:1;" x1="53.8965" x2="405.085" y1="1003.1758" y2="1003.1758"/><text fill="#000000" font-family="sans-serif" font-size="13" lengthAdjust="spacing" textLength="276.8149" x="60.8965" y="998.1099">hallmark base handoff (attended; commit)</text></g><path d="M416,976.4766 L416,1016.4766 L648,1016.4766 L648,986.4766 L638,976.4766 L416,976.4766" fill="#FEFFDD" style="stroke:#181818;stroke-width:0.5;"/><path d="M638,976.4766 L638,986.4766 L648,986.4766 L638,976.4766" fill="#FEFFDD" style="stroke:#181818;stroke-width:0.5;"/><text fill="#000000" font-family="sans-serif" font-size="13" lengthAdjust="spacing" textLength="211.8911" x="422" y="993.5435">no operator verb - surfaced gap:</text><text fill="#000000" font-family="sans-serif" font-size="13" lengthAdjust="spacing" textLength="201.2017" x="422" y="1008.6763">direct write of hallmark locator</text><g class="message" data-entity-1="part1" data-entity-2="part5" id="msg26"><polygon fill="#181818" points="608.188,1038.875,618.188,1042.875,608.188,1046.875,612.188,1042.875" style="stroke:#181818;stroke-width:1;"/><line style="stroke:#181818;stroke-width:1;" x1="53.8965" x2="614.188" y1="1042.875" y2="1042.875"/><text fill="#000000" font-family="sans-serif" font-size="13" lengthAdjust="spacing" textLength="349.4131" x="60.8965" y="1037.8091">rbfd_ordain (airgap bottle; resolves inside GAR alone)</text></g><g class="message" data-entity-1="part5" data-entity-2="part1" id="msg27"><polygon fill="#181818" points="64.8965,1068.0078,54.8965,1072.0078,64.8965,1076.0078,60.8965,1072.0078" style="stroke:#181818;stroke-width:1;"/><line style="stroke:#181818;stroke-width:1;stroke-dasharray:2,2;" x1="58.8965" x2="624.188" y1="1072.0078" y2="1072.0078"/><text fill="#000000" font-family="sans-serif" font-size="13" font-weight="bold" lengthAdjust="spacing" textLength="160.9385" x="70.8965" y="1066.9419">airgap hallmark home</text></g><g class="message" data-entity-1="part1" data-entity-2="part4" id="msg28"><polygon fill="#181818" points="484.106,1097.1406,494.106,1101.1406,484.106,1105.1406,488.106,1101.1406" style="stroke:#181818;stroke-width:1;"/><line style="stroke:#181818;stroke-width:1;" x1="53.8965" x2="490.106" y1="1101.1406" y2="1101.1406"/><text fill="#000000" font-family="sans-serif" font-size="13" lengthAdjust="spacing" textLength="129.9937" x="60.8965" y="1096.0747">rbrn_drive (commit)</text></g><rect fill="#EEEEEE" height="3" style="stroke:#EEEEEE;stroke-width:1;" width="1222.0674" x="0" y="1129.707"/><line style="stroke:#000000;stroke-width:1;" x1="0" x2="1222.0674" y1="1129.707" y2="1129.707"/><line style="stroke:#000000;stroke-width:1;" x1="0" x2="1222.0674" y1="1132.707" y2="1132.707"/><rect fill="#EEEEEE" height="23.1328" style="stroke:#000000;stroke-width:2;" width="188.9414" x="516.563" y="1119.1406"/><text fill="#000000" font-family="sans-serif" font-size="13" font-weight="bold" lengthAdjust="spacing" textLength="170.4155" x="522.563" y="1135.2075">Movement V - The Bind</text><g class="message" data-entity-1="part1" data-entity-2="part5" id="msg29"><polygon fill="#181818" points="608.188,1169.4063,618.188,1173.4063,608.188,1177.4063,612.188,1173.4063" style="stroke:#181818;stroke-width:1;"/><line style="stroke:#181818;stroke-width:1;" x1="53.8965" x2="614.188" y1="1173.4063" y2="1173.4063"/><text fill="#000000" font-family="sans-serif" font-size="13" lengthAdjust="spacing" textLength="366.5645" x="60.8965" y="1168.3403">rbfd_ordain (bind mode; mirror digest-pinned upstream)</text></g><g class="message" data-entity-1="part5" data-entity-2="part1" id="msg30"><polygon fill="#181818" points="64.8965,1198.5391,54.8965,1202.5391,64.8965,1206.5391,60.8965,1202.5391" style="stroke:#181818;stroke-width:1;"/><line style="stroke:#181818;stroke-width:1;stroke-dasharray:2,2;" x1="58.8965" x2="624.188" y1="1202.5391" y2="1202.5391"/><text fill="#000000" font-family="sans-serif" font-size="13" font-weight="bold" lengthAdjust="spacing" textLength="146.2373" x="70.8965" y="1197.4731">bind hallmark home</text></g><g class="message" data-entity-1="part2" data-entity-2="part8" id="msg31"><polygon fill="#181818" points="1158.3027,1227.6719,1168.3027,1231.6719,1158.3027,1235.6719,1162.3027,1231.6719" style="stroke:#181818;stroke-width:1;"/><line style="stroke:#181818;stroke-width:1;" x1="165.7876" x2="1164.3027" y1="1231.6719" y2="1231.6719"/><text fill="#000000" font-family="sans-serif" font-size="13" lengthAdjust="spacing" textLength="143.3428" x="172.7876" y="1226.606">rbfc_plumb (compact)</text></g><g class="message" data-entity-1="part1" data-entity-2="part8" id="msg32"><polygon fill="#181818" points="1158.3027,1256.8047,1168.3027,1260.8047,1158.3027,1264.8047,1162.3027,1260.8047" style="stroke:#181818;stroke-width:1;"/><line style="stroke:#181818;stroke-width:1;" x1="53.8965" x2="1164.3027" y1="1260.8047" y2="1260.8047"/><text fill="#000000" font-family="sans-serif" font-size="13" lengthAdjust="spacing" textLength="189.9854" x="60.8965" y="1255.7388">rbfl_jettison (pouch, surgical)</text></g><g class="message" data-entity-1="part1" data-entity-2="part8" id="msg33"><polygon fill="#181818" points="1158.3027,1285.9375,1168.3027,1289.9375,1158.3027,1293.9375,1162.3027,1289.9375" style="stroke:#181818;stroke-width:1;"/><line style="stroke:#181818;stroke-width:1;" x1="53.8965" x2="1164.3027" y1="1289.9375" y2="1289.9375"/><text fill="#000000" font-family="sans-serif" font-size="13" lengthAdjust="spacing" textLength="272.27" x="60.8965" y="1284.8716">Image Rekon (pouch gone, image stands)</text></g><g class="message" data-entity-1="part1" data-entity-2="part4" id="msg34"><polygon fill="#181818" points="484.106,1315.0703,494.106,1319.0703,484.106,1323.0703,488.106,1319.0703" style="stroke:#181818;stroke-width:1;"/><line style="stroke:#181818;stroke-width:1;" x1="53.8965" x2="490.106" y1="1319.0703" y2="1319.0703"/><text fill="#000000" font-family="sans-serif" font-size="13" lengthAdjust="spacing" textLength="129.9937" x="60.8965" y="1314.0044">rbrn_drive (commit)</text></g><rect fill="#EEEEEE" height="3" style="stroke:#EEEEEE;stroke-width:1;" width="1222.0674" x="0" y="1347.6367"/><line style="stroke:#000000;stroke-width:1;" x1="0" x2="1222.0674" y1="1347.6367" y2="1347.6367"/><line style="stroke:#000000;stroke-width:1;" x1="0" x2="1222.0674" y1="1350.6367" y2="1350.6367"/><rect fill="#EEEEEE" height="23.1328" style="stroke:#000000;stroke-width:2;" width="198.5771" x="511.7451" y="1337.0703"/><text fill="#000000" font-family="sans-serif" font-size="13" font-weight="bold" lengthAdjust="spacing" textLength="180.0513" x="517.7451" y="1353.1372">Movement VI - The Graft</text><g class="message" data-entity-1="part1" data-entity-2="part5" id="msg35"><polygon fill="#181818" points="608.188,1387.3359,618.188,1391.3359,608.188,1395.3359,612.188,1391.3359" style="stroke:#181818;stroke-width:1;"/><line style="stroke:#181818;stroke-width:1;" x1="53.8965" x2="614.188" y1="1391.3359" y2="1391.3359"/><text fill="#000000" font-family="sans-serif" font-size="13" lengthAdjust="spacing" textLength="369.9097" x="60.8965" y="1386.27">rbfd_graft (push anointed local image; verdict GRAFTED)</text></g><g class="message" data-entity-1="part5" data-entity-2="part1" id="msg36"><polygon fill="#181818" points="64.8965,1416.4688,54.8965,1420.4688,64.8965,1424.4688,60.8965,1420.4688" style="stroke:#181818;stroke-width:1;"/><line style="stroke:#181818;stroke-width:1;stroke-dasharray:2,2;" x1="58.8965" x2="624.188" y1="1420.4688" y2="1420.4688"/><text fill="#000000" font-family="sans-serif" font-size="13" font-weight="bold" lengthAdjust="spacing" textLength="150.2744" x="70.8965" y="1415.4028">graft hallmark home</text></g><g class="message" data-entity-1="part1" data-entity-2="part8" id="msg37"><polygon fill="#181818" points="1158.3027,1445.6016,1168.3027,1449.6016,1158.3027,1453.6016,1162.3027,1449.6016" style="stroke:#181818;stroke-width:1;"/><line style="stroke:#181818;stroke-width:1;" x1="53.8965" x2="1164.3027" y1="1449.6016" y2="1449.6016"/><text fill="#000000" font-family="sans-serif" font-size="13" lengthAdjust="spacing" textLength="224.2944" x="60.8965" y="1444.5356">rbfl_wrest (layer-digest round trip)</text></g><g class="message" data-entity-1="part1" data-entity-2="part8" id="msg38"><polygon fill="#181818" points="1158.3027,1474.7344,1168.3027,1478.7344,1158.3027,1482.7344,1162.3027,1478.7344" style="stroke:#181818;stroke-width:1;"/><line style="stroke:#181818;stroke-width:1;" x1="53.8965" x2="1164.3027" y1="1478.7344" y2="1478.7344"/><text fill="#000000" font-family="sans-serif" font-size="13" lengthAdjust="spacing" textLength="230.3374" x="60.8965" y="1473.6685">rbfl_abjure (terminal hallmark dies)</text></g><?plantuml-src fLPTR-eu47tdLupw5BgmFu2gAm5bQRNGTaEtqfKgHOupILmSEzTswFBlxzWXz48flQjzGIGUpyUPCsVYX9C8JoN2ez4RL4nnUcJqRWYbVWEcG5IiG41cb0Lk6YvIEdMciUv5hNHZE8uWdgo-FGvvoUfKwtLIxttzpZBD8ShGY0rcK1kqg1npGYlGEJWAN36pHWDsZHATLlrUZt6d3LpS28FXNwmbNW2pS7CNTuSnEYDmWp-TnhEdNgh_XGkkgqeuH_6SGRperSmumKNDb8EBPxGMPRZmF5iTdjsp2cl9NEll_d7HGvK1-TpvbRh9ZjpDjIu8Zwa_WaaZP1RkpgUJGxibirJoFjVbU7NeUpwEZpmlTDRQBXvkPeT79XL9MRseg6HIUlniFrZUBlTEUzVNiAGkL0Gtt54tVOzZbE9xmymMfbfnoJO8rzUz7i4AmpzypZ02ayeiuRjZZxRO422X84hQs_byZWqXgWG5Cli0Fli1M6GIDhhXPR_dtG_fkeysWijBvr_xv8be5LvUGcJI77AAsEzbU11ubo3rAyJDPRBLQuePJ-Bd99ujxlx-Pnn_6m2X0PlGNti5BGlwHqXqK2mqfzJ-aarM782mZx5ErkrXv1bB5Vr6k3gQbW58V_SAVCKMkXRqEmz4c-31g2Jph8U8Cgcr9JgcMsYTlcTt49OfxL5iwvh7up-VahlbU3vxDrUQ836YA1sPDuepnwGk6l8z1DiOGe_-5gmUlIYbGTTesbdxtf1dS1guS7WCYSU42F7Q60IozKFvXFHhJh4Zpn9jCaRUgAxsJaMzxf-aoksokvFwqO38jzkY6xMgGXrBTUC6BKNeYORMjkhmaIyTq7kwj2xF4QOBlqbIvdYPX30GhHQhyI1aFMHlp53k91q_svl4DbL5K4JXnh1WNapgHieFfZofPLEb4ELqEeBMzMhoi1p0ZUOaRBcGs3z8w2u8Qenh7u1JpvNmNAomIj7OJYFFyCdJdB2d7Cd-4svempZfaa7Ja6wxKbXWXaDEsibsHDwDoejw4wwanijjQ7qRn34X8NfjwgqZ7d1cyNYIddUJD1Q620VJqdFYj9oWibueA7MAJxKtjILbPXMamUzN8lD-dRFQUSQbb9KzBo-fzclg_sXCZZhF8QArn1s4aGp3cAXaV3-zVOW_3F694Gdr3i25SSBi2W9fBUH6Lq4ZQUPvgSqH2CV5jB0TJS3P2lQs7c9wKbaena-OodmY9rcprmoY2UtMzAEgP64fmviX7V4RV1_7Yo9TEuC5QudIak-Ag6cr90g2K5OG4BG1IS2rmY-msBdvDJ1EYl77jT1nUI9eVPuNlTIRUEtm2y0O0YeJ1QdMi1PA4KmTjx-e8hZveeRFfCRlaq3X8vcJoIiw9_o7HbItYahTAxowd56WO0a50J_OVUkH1AlCzlyhXjrgdHkMkqzGBC9PL3Ust6qxWYpiqpRsbQTT9eXXOVtDRhw0iVNtQrnuX-cDk4TPIBP5CspR1qOtodymYle4hYmDYouYBQIjJydk8sO22QaV?></g></svg>